<?xml version="1.0" standalone="no"?><!DOCTYPE svg PUBLIC "-//W3C//DTD SVG 1.1//EN" "http://www.w3.org/Graphics/SVG/1.1/DTD/svg11.dtd"><svg t="1621359047752" class="icon" viewBox="0 0 1025 1024" version="1.1" xmlns="http://www.w3.org/2000/svg" p-id="1452" xmlns:xlink="http://www.w3.org/1999/xlink" width="200.1953125" height="200"><defs><style type="text/css"></style></defs><path d="M776.36941997 729.71763385v-477.12053599c0-58.59375011-47.43303566-106.02678577-106.02678576-106.026785h-424.1071431c-63.05803605 0-117.18750023 44.36383943-129.74330361 106.026785v53.01339289h129.74330361v477.12053598c0 49.38616061 33.76116099 90.40178538 79.52008932 102.3995535 0 0 22.04241051 3.62723227 26.50669645 3.62723227h450.61383954c13.11383941-3.34821465 39.89955348-12.27678575 64.7321426-35.99330358 27.90178537-26.50669644 37.6674109-56.9196428 41.2946424-70.03348219v-53.01339288h-132.53348145zM171.45870534 252.59709786c10.88169605-30.69196399 40.17857112-53.01339289 74.77678577-53.01339212v53.01339212H171.45870534z m127.79017864 530.13392887v-583.14732099h371.09375023c29.29687505 0 53.01339289 23.71651783 53.01339287 53.01339212v477.12053599h-318.08035731v26.50669643c0 37.3883925-25.94866042 69.75446457-62.50000002 77.56696438-25.11160753-4.18526753-43.52678576-25.94866042-43.52678576-51.06026793z m477.12053599 53.01339288H430.94531255c11.71874972-15.34598199 20.36830396-33.20312496 24.55357149-53.01339288H850.86718734c-10.88169605 30.69196399-40.17857112 53.01339289-74.49776737 53.01339288z m0 0" p-id="1453"></path><path d="M378.76897332 495.90066943c-14.50892833 0-26.50669644 11.99776812-26.50669644 26.50669642s11.99776812 26.50669644 26.50669645 26.50669644h106.02678577v106.02678579c0 14.50892833 11.99776812 26.50669644 26.50669643 26.50669643s26.50669644-11.99776812 26.50669646-26.50669643v-106.02678579h106.02678576c14.50892833 0 26.50669644-11.99776812 26.50669646-26.50669643s-11.99776812-26.50669644-26.50669646-26.50669643h-106.02678576v-53.0133929h106.02678576c14.50892833 0 26.50669644-11.99776812 26.50669646-26.50669645s-11.99776812-26.50669644-26.50669646-26.50669644H538.36718725l97.09821467-94.58705291c10.04464315-10.88169605 9.76562476-27.90178537-0.83705367-38.50446456-10.60267843-10.60267843-27.34375011-10.88169605-38.50446455-0.83705367L511.58147318 340.48772303l-84.26339291-84.2633929c-11.16071445-11.16071445-29.57589269-11.16071445-40.73660714 0s-11.16071445 29.57589269 0 40.73660714l98.21428597 92.63392874h-106.02678578c-14.50892833 0-26.50669644 11.99776812-26.50669644 26.50669645s11.99776812 26.50669644 26.50669644 26.50669643h106.02678578v53.01339289h-106.02678578z m1e-8-1e-8" p-id="1454"></path></svg>