<?xml version="1.0" standalone="no"?><!DOCTYPE svg PUBLIC "-//W3C//DTD SVG 1.1//EN" "http://www.w3.org/Graphics/SVG/1.1/DTD/svg11.dtd"><svg t="1621359044140" class="icon" viewBox="0 0 1084 1024" version="1.1" xmlns="http://www.w3.org/2000/svg" p-id="1324" xmlns:xlink="http://www.w3.org/1999/xlink" width="211.71875" height="200"><defs><style type="text/css"></style></defs><path d="M651.23460107 469.31825019a25.9940874 25.9940874 0 0 0 25.72938106-25.67644014 25.9940874 25.9940874 0 0 0-25.67644013-25.67644101h-30.81172852l15.35292334-34.51760596c5.92940479-13.23527872 0-27.84702568-13.18233779-33.72348955a25.25291104 25.25291104 0 0 0-33.72348955 13.23527871l-24.24703008 55.0058168h-44.04700723l-24.19408916-55.0587586a25.46467558 25.46467558 0 0 0-33.77643047-13.2352787c-13.23527872 5.92940479-19.05880078 20.59409355-13.23527871 33.77643134l15.45880518 34.51760596h-41.0823044a25.9940874 25.9940874 0 0 0-25.72938193 25.67644101c0 13.92351328 11.75292773 25.67644013 25.72938193 25.67644014H512.52888184v60.88228155H422.31722276a25.9940874 25.9940874 0 0 0-25.67644015 25.72938105c0 13.92351328 11.69998594 25.67644013 25.67644015 25.67644101h88.78224901v68.29403731c0 13.92351328 11.75292773 25.67644013 25.67644014 25.67644014a25.9940874 25.9940874 0 0 0 25.67644014-25.72938193V581.6063538h88.83518994a25.9940874 25.9940874 0 0 0 25.67644014-25.67644101 25.9940874 25.9940874 0 0 0-25.67644014-25.67644014H562.45235205v-60.88228154h88.83518994z" p-id="1325"></path><path d="M530.79356622 143.88922158c147.44100323 0 278.47026036 87.35283809 338.50548368 222.03503261 7.30587393 16.3588043 23.66467822 27.26467383 41.87642168 27.26467383a45.9528873 45.9528873 0 0 0 41.82347988-27.26467383l30.97055216-69.19403642c7.30587393-16.3588043 0-34.57054776-16.41174522-40.02348252-16.3588043-7.252933-34.57054776 0-40.02348252 16.4117461l-16.3588043 36.37054511A429.6171419 429.6171419 0 0 0 530.79356622 82.00105908C305.15853711 82.00105908 121.34698877 256.70673525 103.13524531 478.74176875c-1.79999825 18.21174346 12.70586778 32.77054951 30.97055216 32.77054951 16.3588043 0 29.11761299-12.75880869 30.91761034-29.11761299a367.14662666 367.14662666 0 0 1 365.82309932-338.50548369z m-1e-8 735.24619336A368.41721396 368.41721396 0 0 1 195.94101904 664.35331445c-7.252933-18.21174346-25.41173467-27.26467383-43.67641904-27.26467295-18.15880254 0-34.57054776 12.70586778-41.82348076 30.91761035l-21.86467999 58.2352251c-5.45293477 16.41174521 1.85293916 34.57054776 18.21174346 40.02348252 16.41174521 5.45293477 34.57054776-1.79999825 40.02348252-18.15880166l9.10587129-25.51761738a429.88184737 429.88184737 0 0 0 374.87602969 218.3820961c225.68797002 0 411.35245752-174.70567705 427.71126182-396.74070968 1.79999825-18.15880254-12.70586778-32.71760859-30.97055215-32.71760859-16.3588043 0-29.11761299 12.70586778-30.91761036 29.11761299-12.70586778 189.2644831-172.90567881 338.50548369-365.82309931 338.50548369z" p-id="1326"></path></svg>