<?xml version="1.0" standalone="no"?><!DOCTYPE svg PUBLIC "-//W3C//DTD SVG 1.1//EN" "http://www.w3.org/Graphics/SVG/1.1/DTD/svg11.dtd"><svg t="1621358816120" class="icon" viewBox="0 0 1025 1024" version="1.1" xmlns="http://www.w3.org/2000/svg" p-id="1451" xmlns:xlink="http://www.w3.org/1999/xlink" width="200.1953125" height="200"><defs><style type="text/css"></style></defs><path d="M691.19140625 227.33984375l26.3671875 26.3671875c14.50195313-14.50195313 38.23242188-14.50195313 52.734375 0s14.50195313 38.23242188 0 52.734375l26.3671875 26.3671875c29.00390625-29.00390625 29.00390625-76.46484375 0-105.46875-27.68554688-29.00390625-75.14648438-29.00390625-105.46875 0z" p-id="1452"></path><path d="M614.80566406 175.71289062l-55.39746093 75.19921876-336.41894532-72.5625c-15.87304687-4.16601563-27.47460938-7.3828125-39.33984375-8.70117188-26.39355469-3.95507813-49.04296875 0.79101563-68.81835937 20.56640625-21.12011719 21.12011719-29.03027344 51.44238281-22.43847657 79.15429688l1.31835938 2.63671875c3.95507813 14.50195313 10.546875 27.71191406 21.12011719 38.25878906s25.07519531 19.77539063 38.25878906 23.75683594c73.88085938 47.48730469 184.67578125 109.50292969 240.09960937 139.82519531l-79.15429687 105.54785156H229.58105469c-38.25878906-2.63671875-55.39746094 3.95507813-76.51757813 25.07519531-32.98535156 32.98535156-32.98535156 87.06445313 0 120.04980469 11.86523438 11.86523438 25.07519531 19.77539063 39.57714844 22.43847656h1.31835938c40.89550781 3.95507813 71.24414063 3.95507813 91.01953125 6.59179688l1.31835937 1.31835937c1.31835938 15.8203125 1.31835938 38.25878906 3.95507813 64.65234375-1.31835938 23.75683594 6.59179688 47.48730469 23.75683593 64.65234375 11.86523438 11.86523438 27.71191406 19.77539063 42.21386719 22.43847657 26.39355469 5.2734375 55.39746094-2.63671875 76.51757813-23.75683594 22.43847656-22.43847656 23.75683594-54.07910156 23.75683593-85.74609375l1.31835938-79.15429688 98.9296875-79.15429687C588.41210938 695.515625 649.08300781 803.70019531 693.93359375 874.94433594c5.2734375 11.86523438 11.86523438 23.75683594 22.43847656 34.30371094 10.546875 10.546875 23.75683594 18.45703125 38.25878907 21.12011718l1.31835937 1.31835938 1.31835938-1.31835938c27.71191406 6.59179688 58.03417969-1.31835938 79.15429687-22.43847656 21.12011719-21.12011719 30.34863281-51.44238281 25.07519531-77.8359375L762.56738281 475.21777344l84.42773438-67.2890625c20.14453125-14.95019531 19.77539063-10.546875 30.34863281-21.12011719 65.97070313-65.97070313 79.15429688-186.02050781 13.18359375-251.96484375s-186.02050781-52.76074219-251.96484375 13.18359375M147.79003906 278.59765625c-14.50195313-14.50195313-14.50195313-40.89550781 0-55.39746094 9.22851563-9.22851563 22.43847656-11.86523438 35.62207031-9.22851562h1.31835938l346.93945313 73.88085937-112.13964844 150.3984375-271.74023438-159.65332031z m664.875 563.30859375c2.63671875 11.86523438-1.31835938 26.39355469-10.546875 35.62207031-14.50195313 14.50195313-38.25878906 14.50195313-52.76074219 0-5.2734375-5.2734375-9.22851563-10.546875-10.546875-17.13867187L596.34863281 607.10644531 719.03515625 513.45019531l93.62988281 328.45605469zM833.78515625 361.70703125l-424.77539063 331.11914063-2.63671874 139.82519531c-1.31835938 6.59179688-3.95507813 11.86523438-9.22851563 17.13867187-14.50195313 14.50195313-38.25878906 14.50195313-52.76074219 0-5.2734375-5.2734375-7.91015625-10.546875-9.22851562-17.13867187l-1.31835938-89.70117188c0-2.63671875 1.31835938-5.2734375 1.31835938-7.91015625v-1.31835937c0-7.91015625-2.63671875-15.8203125-7.91015625-21.12011719-2.63671875-2.63671875-5.2734375-3.95507813-9.22851563-5.2734375h-1.31835937c-1.31835938 0-2.63671875-1.31835938-3.95507813-1.31835938-2.63671875 0-3.95507813-1.31835938-6.59179687-1.31835937h-7.91015625l-98.9296875-2.63671875c-5.2734375-1.31835938-10.546875-6.59179688-15.8203125-10.546875-14.50195313-14.50195313-14.50195313-38.25878906 0-52.76074219 5.2734375-5.2734375 10.546875-9.22851563 17.13867187-10.546875h137.18847657L662.29296875 194.16992187c2.63671875-3.95507813 6.59179688-9.22851563 10.546875-13.18359374 47.48730469-47.48730469 137.18847656-60.67089844 184.67578125-14.50195313 47.48730469 47.48730469 32.98535156 137.18847656-14.50195313 184.67578125-2.63671875 5.2734375-6.59179688 6.59179688-9.22851562 10.546875z" p-id="1453"></path></svg>