<?xml version="1.0" standalone="no"?><!DOCTYPE svg PUBLIC "-//W3C//DTD SVG 1.1//EN" "http://www.w3.org/Graphics/SVG/1.1/DTD/svg11.dtd"><svg t="1621358412020" class="icon" viewBox="0 0 1024 1024" version="1.1" xmlns="http://www.w3.org/2000/svg" p-id="2996" xmlns:xlink="http://www.w3.org/1999/xlink" width="200" height="200"><defs><style type="text/css"></style></defs><path d="M577.3 0c50.4 0 92.6 37.6 97.4 86.8l0.5 9.2v64h65.3c85.9 0 157.2 65.4 162.8 149.5l0.3 10.5v480c0 84.3-66.7 154.2-152.4 159.7l-10.7 0.3v32c0 17.7-14.6 32-32.6 32s-32.6-14.3-32.6-32v-32H348.9v32c0 17.7-14.6 32-32.6 32s-32.6-14.3-32.6-32v-32c-85.9 0-157.2-65.4-162.8-149.5l-0.3-10.5V320c0-84.3 66.6-154.1 152.4-159.7l10.8-0.3h65.3V96c0-49.4 38.3-90.8 88.5-95.5L447 0h130.3z m163.1 224H283.6c-50.4 0-92.6 37.6-97.4 86.8l-0.5 9.2v480c0 49.4 38.3 90.8 88.4 95.6l9.5 0.4h456.8c50.4 0 92.6-37.6 97.4-86.8l0.5-9.2V320c0-49.4-38.3-90.8-88.5-95.6l-9.4-0.4zM348.8 384c18 0 32.6 14.3 32.6 32v320c0 17.7-14.6 32-32.6 32s-32.6-14.3-32.6-32V416c0-17.7 14.6-32 32.6-32z m163.2 0c18 0 32.6 14.3 32.6 32v320c0 17.7-14.6 32-32.6 32s-32.6-14.3-32.6-32V416c0-17.7 14.6-32 32.6-32z m163.1 0c18 0 32.6 14.3 32.6 32v320c0 17.7-14.6 32-32.6 32s-32.6-14.3-32.6-32V416c0-17.7 14.6-32 32.6-32zM577.3 64H446.7c-15.8 0-29.3 11-32.1 26.2l-0.5 5.8v64h195.8V96c0-13.4-8.5-25.4-21.3-30l-5.5-1.5-5.8-0.5z" p-id="2997"></path></svg>