<?xml version="1.0" standalone="no"?><!DOCTYPE svg PUBLIC "-//W3C//DTD SVG 1.1//EN" "http://www.w3.org/Graphics/SVG/1.1/DTD/svg11.dtd"><svg t="1621054505373" class="icon" viewBox="0 0 1024 1024" version="1.1" xmlns="http://www.w3.org/2000/svg" p-id="1244" xmlns:xlink="http://www.w3.org/1999/xlink" width="200" height="200"><defs><style type="text/css"></style></defs><path d="M513.21841223 83.95319213C748.35722238 83.95319213 939.75649133 275.2749087 939.75649133 510.49127123c0 235.13881016-191.39926895 426.53807911-426.5380791 426.53807913S86.68033311 745.6300814 86.68033311 510.49127123C86.68033311 275.2749087 278.07960206 83.95319213 513.21841223 83.95319213M513.21841223 6.4008141C234.8829275 6.4008141 9.12795508 232.07823414 9.12795508 510.49127123 9.12795508 788.82675594 234.8829275 1014.58172838 513.21841223 1014.58172838S1017.30886936 788.82675594 1017.30886936 510.49127123C1017.30886936 232.07823414 791.55389696 6.4008141 513.21841223 6.4008141L513.21841223 6.4008141z" p-id="1245"></path><path d="M784.6517353 471.71508222L551.99460123 471.71508222 551.99460123 239.05794817 474.44222321 239.05794817 474.44222321 471.71508222 241.78508915 471.71508222 241.78508915 549.26746025 474.44222321 549.26746025 474.44222321 781.92459432 551.99460123 781.92459432 551.99460123 549.26746025 784.6517353 549.26746025Z" p-id="1246"></path></svg>