<?xml version="1.0" standalone="no"?><!DOCTYPE svg PUBLIC "-//W3C//DTD SVG 1.1//EN" "http://www.w3.org/Graphics/SVG/1.1/DTD/svg11.dtd"><svg t="1621631557830" class="icon" viewBox="0 0 1024 1024" version="1.1" xmlns="http://www.w3.org/2000/svg" p-id="2891" xmlns:xlink="http://www.w3.org/1999/xlink" width="200" height="200"><defs><style type="text/css"></style></defs><path d="M870.50972766 363.42860672c-1.52193713-1.87016941-3.03459878-3.55483987-4.52618152-5.10122928-1.76814487-2.48653289-4.0531583-4.57592899-6.69314987-6.12147464-0.78752857-0.6239523-1.54976194-1.2049022-2.26309076-1.71080859l-0.30691653 0.43002081c-2.54049665-1.05734565-5.32467142-1.64335474-8.24375473-1.64335474-11.86773514 0-21.48671338 9.61813531-21.48671338 21.48671338 0 7.43093097 3.77996869 13.98242642 9.5169537 17.84165323 0.40388269 0.45025763 0.81788296 0.92749631 1.23609953 1.43677606 7.21086136 8.87698169 7.21086136 15.35596326-6.6838744 27.312232-6.06076584 5.215901-12.67212717 9.84157745-19.7590405 13.91159921-13.81716348 7.92840564-28.79285339 13.40231946-43.78793637 16.80117106-1.66864993 0.38027334-3.26647266 0.71670136-4.77407592 1.01518697-2.56410516-14.15106189-6.09955197-28.25996512-10.74630734-42.18336858-10.96637695-32.88226822-27.62926776-62.46939606-50.69525373-87.76390211-7.14003415-7.83228323-14.57180805-14.94702218-22.27255527-21.38468883 1.84487422-3.02953957 4.18722391-6.76987839 6.96802533-11.07177485 8.22773419-12.72609008 17.17469934-25.44965139 26.48591729-37.24571641 14.14684561-17.9217551 27.78525522-31.95139939 39.84354851-40.40679199 11.52540417-8.083551 18.57690472-9.48322678 22.65957449-6.92839626 53.37487436 33.37384158 63.44663983 44.92116843 57.29059451 64.88763134-4.06327671 13.20248584-9.06585315 21.27085923-18.46813513 30.02052119-6.15098611 5.7209653-14.37872031 11.93097353-27.45810187 20.81132776-7.18893869 4.88368927-27.88222056 18.46223301-35.2043811 23.34845104l0.07504266 0.10876959c-5.92670022 3.66613907-9.87361853 10.2167916-9.87361853 17.69578337 0 11.48408844 9.30615957 20.78940508 20.7894051 20.78940508 6.4840416 0 12.27246075-2.96545825 16.08531261-7.61642991 9.40734036-5.78504663 25.63599409-15.18395526 31.84600232-19.40153357 14.71093204-9.98829025 24.42518977-17.32309883 32.49440607-24.82569909 14.88294085-13.83908616 23.84002358-28.30212378 30.06267984-48.49540136 14.3382475-46.52320743-5.95705462-69.78312487-75.25535203-113.12164737-21.37962964-13.36690585-45.38660284-8.60210541-69.29070857 8.16449579-8.10884619 5.6880813-16.27502783 12.78258344-24.50276204 21.1030675-4.64591244-15.23454565-18.57437512-31.81227539-45.09823562-46.17413141-1.20996057-0.6568363-2.44437424-1.30524005-3.7049252-1.95027127-20.68822348-10.56671054-40.24996079-2.45280596-54.1640896 16.36356144-8.73448434 11.81714392-15.83657528 28.16299897-21.99683606 48.27027255-3.8592268 12.5970845-7.1113656 25.95218528-9.80447718 39.2904234-0.02866773 0.13490854-0.05312 0.2656008-0.08010186 0.40050933-23.96987375-2.07253262-47.73907013 0.23187387-70.5394553 5.81793064-18.47403726 2.22430462-33.99947974 17.07941987-38.27102096 21.68823285-7.11979816 7.67123657-14.24381177 15.60470141-20.92599948 23.40241479-2.35921316 2.75129077-4.63073566 5.44777488-6.79601734 8.07680512-2.77152676 3.36596759-5.36683008 6.60124292-7.75555389 9.69739425-22.88048703 29.61242303-52.02578897 75.99819232-88.24788666 138.93049237-5.96211383 10.36013186-12.10804074 21.1536579-18.49511618 32.47332716-12.55829837 22.25906433-94.40308823 171.14159124-105.48245187 188.88206286-19.7286861 31.59810791-26.66045572 45.21796738-38.83932284 73.11958099-0.44688428 1.01181363-0.44688428 1.01181363-0.8844939 2.01435343-3.44269693 7.83649951-6.05486371 13.31715838-9.5346601 19.78012024-1.19225418 2.2158729-6.01523383 10.93265002-6.93851468 12.62575222-2.93931931 5.3929682-5.22770526 9.82049771-7.28421735 14.20249604-9.04814676 19.26156582-12.40231009 34.79038083-6.71338586 49.88158621 7.53211175 19.97658051 27.58120615 28.87464194 57.08064331 28.87464194 97.80278357 0 405.8385911-164.58672244 535.17624418-264.88784318 2.13661396-1.66106113 4.17879217-3.39126362 6.13412265-5.19482125 10.02707639-9.24292118 16.32140277-18.61653461 19.60726849-25.69838874l1.4527966-4.27238498c0.88618058-3.94776123 2.12480969-10.79436895 3.34235907-20.06680078 2.94437851-22.51707714 4.08266978-45.992005 2.82296091-69.74433874 18.86021274-3.1686644 41.67408884-10.28340253 64.68189559-23.48757504 9.34325903-5.36261379 18.14098178-11.51781619 26.28355491-18.52800019C891.19120526 421.30773911 891.19120526 388.8883757 870.50972766 363.42860672L870.50972766 363.42860672zM610.18853716 259.72357437c2.43847211-12.08274555 5.37526181-24.14356841 8.78760434-35.27436539 4.87441379-15.92426596 10.29267801-28.39571658 15.57518995-35.53575073 1.65937527-2.24622729 2.00592087-3.06832571 1.85836515-3.42583347 0.66020884 0.34148721 1.32294644 0.68634696 1.95701715 1.03205046 20.25398639 10.96637695 24.82907244 18.49090073 24.79028631 20.60137573 0.0050592-0.16020373 0.0050592-0.16020373 0.00927466-0.33305548 0 0 5.45957995 4.4401767 14.90570645 4.76058498 9.44444064 0.31619201 14.17214163-3.78671375 14.17214164-3.78671374-4.28840469 4.87272793-8.59030115 10.0473132-12.90484397 15.51532407-10.21173239 12.93772797-19.90491038 26.71863491-28.80803101 40.49026638-2.3651153 3.66108068-4.54473083 7.12485653-6.53041653 10.35085722-11.17632898-5.94356369-22.48503608-10.64512656-33.85023733-14.20080937C610.16155613 259.85005118 610.1742033 259.79187198 610.18853716 259.72357437L610.18853716 259.72357437zM722.9425592 555.63953772c-0.78331228 5.99078238-1.54891819 10.64596948-2.14926113 13.75561094-1.59866648 2.68383691-4.59869458 6.66026587-9.00514436 10.72607134-1.08348377 0.99916644-2.21249954 1.95533048-3.38873401 2.86343371-35.48094406 27.52049735-86.1365679 60.65487625-142.24165411 93.82213834l-0.13575146-0.22344214-40.66564774-67.78226238-10.09874652-16.82562332c-3.16023266-7.77326111-10.77666257-13.25054746-19.68231198-13.25054746-11.73366952 0-21.24556403 9.51273825-21.24556402 21.24556402 0 4.63832363 1.48736646 8.92757209 4.01015588 12.41917356l-0.04637494 0.02951147 10.86097989 18.09882312 40.46834372 67.45342319c-129.26092373 73.40204608-275.31964599 141.04771326-330.52590362 141.04771326-13.89304907 0-17.61736817-1.655159-17.57520869-1.54470273-0.45531601-1.20152884 0.8844939-7.38539895 5.42163676-17.04569293 1.63829553-3.49328814 3.57170334-7.23362695 6.14255437-11.95205247 0.81282376-1.48736646 5.70916022-10.33483667 7.04053922-12.81209491 4.08604229-7.58691843 7.15268134-14.02880137 11.01275189-22.80460061 0.46290481-1.06156192 0.46290481-1.06156192 0.92159418-2.110475 11.41747751-26.14527383 17.44704602-38.00036096 35.96239901-67.64735386 6.21675412-9.95540625 32.08630792-56.37321661 56.93308678-101.18645837l50.71043051 62.18271552 13.34245357 16.35850305 0.02107975-0.01686347c3.84657962 5.15181968 9.98997693 8.48490326 16.91584359 8.48490326 11.65272473 0 21.09716455-9.44528357 21.09716455-21.09716455 0-5.38875275-2.02194141-10.3053252-5.34575033-14.03385974l0.02951148-0.02107974-13.34245359-16.35850306-61.39855948-75.28064722c13.17297519-23.79955161 23.75570627-42.93885608 27.47665201-49.53166726 6.33142584-11.21848764 12.41580102-21.90745954 18.31720606-32.15713513 22.76750117-39.55939755 42.64037127-72.36072098 59.6177666-98.10211212l2.59445957 4.2681687 63.56131155 104.48075583 7.69653176 12.6502045c2.99581265 8.10715952 10.78846683 13.88124481 19.93189224 13.88124481 11.73619913 0 21.24303442-9.51273825 21.24303443-21.24978031 0-3.24454999-0.72850644-6.31877866-2.02953021-9.07006943l0.19477441-0.11804506-10.97143615-18.03558473-75.51336484-125.16560677c0.8313739-1.10372058 24.98674658-28.70263312 31.75831164-35.99949848 2.19142062-2.36342862 4.10290576-4.40223432 5.6880813-6.07594263 2.86090412-0.9553211 6.79517441-2.12228008 11.67296072-3.31959348 38.14876044-9.34494571 79.45185059-7.30108081 117.9235481 13.85173334 15.614819 8.58608486 30.3088884 20.18400293 43.94982678 35.14029977 18.90911728 20.73712802 32.66725781 45.16653323 41.8427243 72.67691218C726.70903696 464.53243281 728.63063967 512.22512881 722.9425592 555.63953772L722.9425592 555.63953772zM722.9425592 555.63953772" p-id="2892"></path></svg>