<?xml version="1.0" standalone="no"?><!DOCTYPE svg PUBLIC "-//W3C//DTD SVG 1.1//EN" "http://www.w3.org/Graphics/SVG/1.1/DTD/svg11.dtd"><svg t="1621631555057" class="icon" viewBox="0 0 1024 1024" version="1.1" xmlns="http://www.w3.org/2000/svg" p-id="2764" xmlns:xlink="http://www.w3.org/1999/xlink" width="200" height="200"><defs><style type="text/css"></style></defs><path d="M544.47671654 389.53071522c12.91216677-3.18441918 32.2804173-12.71586681 51.64866783-25.453545 9.6841249-9.53144765 25.80252221-6.34702774 35.48664712 3.18441919 9.6841249 9.55325827 6.45608375 25.45354498-3.22804116 34.98499262-32.2804173 25.45354498-70.99510629 38.16941181-112.9596485 38.1694118-38.71468971 0-77.45119004-12.71586681-109.73160735-34.98499262-9.6841249-6.34702774-12.91216677-22.24731445-6.45608301-31.80057272 6.45608375-9.55325827 22.59629168-12.73767816 32.28041658-6.36883908 16.14020865 12.71586681 35.50845846 19.0847059 58.08293951 25.45354497v-25.45354497c0-79.5232435 29.05237542-155.86206782 80.70104326-216.30060542C579.98517572 141.40772574 592.8973425 138.22330584 605.78769793 147.75475348c9.6841249 9.53144765 12.89035543 22.24731445 3.22804188 34.98499261-45.19258408 50.90708995-67.78887576 117.69265601-67.78887577 187.68445188 0 9.53144765 0 15.92209734 3.22804188 19.08470591zM163.63322885 539.04575458c0 187.68445188 154.9241907 343.52470835 348.56307111 343.52470905 193.66069103 0 348.58488173-152.67764791 348.58488174-343.52470906 0-120.8770752-64.56083389-232.22270274-167.83635748-292.66124035-12.91216677-6.36883909-25.82433355-3.18441918-32.28041731 9.55325898-6.45608375 12.71586681-3.22804188 25.43173363 9.68412562 31.80057272 87.13531494 54.09150986 145.26187642 146.33062017 145.26187643 251.30740866 0 162.23090689-132.34970965 292.63942973-296.95802598 292.63942972-164.6083156 0-296.93621463-130.43033346-296.93621462-292.63942972 0-120.8770752 77.47300066-232.22270274 190.43264989-273.57653446 12.91216677-6.36883909 19.36825053-19.0847059 12.91216676-31.80057271-6.45608375-12.73767816-19.36825053-19.0847059-32.28041729-12.73767817C253.99658566 271.85987054 163.63322885 399.08397348 163.63322885 539.04575458z" p-id="2765"></path></svg>