<?xml version="1.0" standalone="no"?><!DOCTYPE svg PUBLIC "-//W3C//DTD SVG 1.1//EN" "http://www.w3.org/Graphics/SVG/1.1/DTD/svg11.dtd"><svg t="1621631551904" class="icon" viewBox="0 0 1025 1024" version="1.1" xmlns="http://www.w3.org/2000/svg" p-id="2636" xmlns:xlink="http://www.w3.org/1999/xlink" width="200.1953125" height="200"><defs><style type="text/css"></style></defs><path d="M907.48012695 556.09912109L907.48012695 532.6652832c0-93.04321289-42.17102051-180.20324708-118.7512207-245.41259765-75.44311523-64.31945801-175.45715333-99.71740723-281.6015625-99.71740723-112.57141114 0-207.29553223 21.80236817-273.98803711 63.0834961C195.86269531 273.75598144 166.94118653 303.07299805 147.1657959 337.72937011 129.51625977 368.62841797 119.23305664 404.02636719 116.51394043 443.08276367c-0.14831543 2.17529297 0.44494629 38.21594239 1.18652343 85.03417969 0.34606934 19.6270752 0.59326172 35.39794922 0.59326172 37.07885742 0 57.10144043 14.28771973 89.68139648 47.70812989 109.20959473 29.21813965 16.95739747 66.79138184 19.42932129 110.44555664 22.24731445 57.44750977 3.90563965 128.98498536 8.75061036 202.89550781 49.83398437 88.09936523 49.1418457 165.37170411 78.50830078 229.74060059 87.20947267 13.44726563 1.82922363 26.59790039 2.71911622 39.20471191 2.7191162 51.66320801 0 93.38928223-17.35290528 124.0411377-51.71264648C907.87563477 745.05297852 907.67788086 657.59631348 907.48012695 556.09912109zM837.96962891 756.32495117c-18.83605958 23.13720703-47.90588379 34.85412598-86.46789552 34.85412598-9.68994141 0-20.61584473-0.84045411-32.53051757-2.47192382-58.58459473-8.25622559-130.86364747-36.88110352-214.90905762-85.18249513C418.87966309 654.48168945 339.87697754 648.94458008 275.70583496 644.49511719c-39.00695801-2.66967773-69.80712891-4.74609375-88.54431152-15.96862794-16.06750489-9.83825684-23.87878418-27.38891602-25.46081544-57.89245605C194.97280273 591.69482422 240.06069336 596.3914795 288.11489258 601.48364258c63.38012695 6.52587891 135.2142334 13.94165039 205.61462402 56.50817871 89.82971192 54.23400879 169.52453614 81.67236328 236.95861817 81.67236328 52.55310059 0 96.55334473-17.3034668 128.14453125-50.22949219C856.16298828 723.34948731 850.52700195 740.55407715 837.96962891 756.32495117zM827.09316406 651.51538086c-21.75292969 26.10351563-54.13513184 39.35302734-96.20727539 39.35302734-57.20031739 0-130.02319336-25.06530762-210.65734864-72.52624512C440.33596191 571.32617188 359.30629883 563.11938477 293.25649414 556.39575195c-97.98706055-9.88769531-131.852417-17.10571289-131.852417-92.10388184 0-76.08581543 31.83837891-134.62097168 94.67468263-173.97399902C315.50380859 253.14013672 402.26833496 233.51306152 506.92958984 233.51306152c195.43029786 0 354.42443848 135.0164795 354.42443848 300.93200684C861.35402833 584.57568359 849.53823242 625.0657959 827.09316406 651.51538086z" p-id="2637"></path><path d="M349.22084961 309.15393066c-55.76660156 0-101.15112305 37.86987305-101.15112305 84.44091798 0 46.57104492 45.38452148 84.49035645 101.15112305 84.49035644s101.15112305-37.86987305 101.15112305-84.49035644C450.32253418 347.02380371 404.98745117 309.15393066 349.22084961 309.15393066zM349.17141113 432.79956055c-30.20690918 0-55.66772461-17.84729004-55.66772461-39.00695802 0-21.01135254 25.51025391-38.80920411 55.71716309-38.80920409l0.44494628-4.84497071 0 4.84497071c30.45410156 0 55.17333984 17.40234375 55.17333985 38.8092041C404.83913574 415.29833984 379.87270508 432.79956055 349.17141113 432.79956055z" p-id="2638"></path></svg>