<?xml version="1.0" standalone="no"?><!DOCTYPE svg PUBLIC "-//W3C//DTD SVG 1.1//EN" "http://www.w3.org/Graphics/SVG/1.1/DTD/svg11.dtd"><svg t="1621631560725" class="icon" viewBox="0 0 1024 1024" version="1.1" xmlns="http://www.w3.org/2000/svg" p-id="3018" xmlns:xlink="http://www.w3.org/1999/xlink" width="200" height="200"><defs><style type="text/css"></style></defs><path d="M877.31249005 415.09351541L771.66308938 246.0404765l0.86425791-5.11387646-4.08688522-0.0227656-6.58606614-10.55659295 13.12407065-80.98812159-499.17084356-0.58347949-3.94691748 82.01511283L144.72796319 449.35185007l-2.42835369 413.41960738 572.33595657 25.22115007 168.32959167-106.9335618L877.31249005 415.09351541zM760.82656094 309.93484353l62.82015793 100.48830635-85.14499026 31.57281271L760.82656094 309.93484353zM687.45234048 843.71478528l-501.87997567-22.11488113 1.98484195-338.69039942 502.13630182 13.17128851L687.45234048 843.71478528zM692.96419668 453.13519128l-493.12272491-12.9613373L291.45532603 282.65886807l430.13899071 1.16695899L692.96419668 453.13519128zM716.78398428 239.43164477l0.83980564 1.33137818-403.1193414-1.0742091L316.81644382 191.86121011l407.58059783 0.49072962L716.78398428 239.43164477zM730.56320457 826.87735688l1.93846699-336.75024573L834.85677478 452.15457498l4.71758259 305.48097785L730.56320457 826.87735688zM403.05925254 665.88088791c0.42074616-7.75218137 0.84149231-15.03977207 1.16695898-21.83494565 1.58939099 5.51185702 3.27068894 11.14091538 5.04473593 16.86103692l24.14694095 78.23261454 29.23805182 0 26.1317829-79.60952472c2.12565262-6.46970691 4.13494685-12.68224558 6.00258663-18.63592767 0.32715335 6.93598507 0.65346294 13.80030002 0.98145924 20.38720906l4.1568695 79.37680794 38.53156338 0-10.76654416-179.21165049-43.13278757 0-25.5483034 77.32198169c-3.38704733 10.67126467-6.39803677 20.87793869-9.10801264 30.73216333-2.5219465-9.47985425-5.37188928-19.54571677-8.64089153-30.52221213l-24.84677884-77.53193371-42.92367929 0-12.18898554 179.21165048 37.73728894 0L403.05925254 665.88088791z" p-id="3019"></path></svg>