<?xml version="1.0" standalone="no"?><!DOCTYPE svg PUBLIC "-//W3C//DTD SVG 1.1//EN" "http://www.w3.org/Graphics/SVG/1.1/DTD/svg11.dtd"><svg t="1621358403457" class="icon" viewBox="0 0 1024 1024" version="1.1" xmlns="http://www.w3.org/2000/svg" p-id="2613" xmlns:xlink="http://www.w3.org/1999/xlink" width="200" height="200"><defs><style type="text/css"></style></defs><path d="M896 382.4h-24C833.6 219.2 686.4 97.6 512 97.6S190.4 219.2 152 382.4H128h-1.6c-35.2 6.4-59.2 38.4-52.8 73.6C102.4 630.4 174.4 740.8 288 787.2v43.2c0 52.8 43.2 96 96 96h256c52.8 0 96-43.2 96-96v-43.2c113.6-46.4 185.6-156.8 214.4-331.2v-4.8c3.2-33.6-20.8-64-54.4-68.8zM512 161.6c139.2 0 256 92.8 292.8 220.8H219.2C256 256 372.8 161.6 512 161.6z m160 668.8c0 17.6-14.4 32-32 32H384c-17.6 0-32-14.4-32-32v-32h320v32z m22.4-96H329.6c-100.8-32-166.4-124.8-193.6-288h750.4c-25.6 163.2-89.6 254.4-192 288z" p-id="2614"></path></svg>