<?xml version="1.0" standalone="no"?><!DOCTYPE svg PUBLIC "-//W3C//DTD SVG 1.1//EN" "http://www.w3.org/Graphics/SVG/1.1/DTD/svg11.dtd"><svg t="1621358827895" class="icon" viewBox="0 0 1027 1024" version="1.1" xmlns="http://www.w3.org/2000/svg" p-id="1579" xmlns:xlink="http://www.w3.org/1999/xlink" width="200.5859375" height="200"><defs><style type="text/css"></style></defs><path d="M342.35145729 285.37527734c-4.27111101-4.27111101-10.39922688-6.12811587-16.34164265-5.19961344s-10.95632815 4.82821228-13.55613534 10.21352676L57.85831708 821.67827247c-0.18570011 0.37140116-0.18570011 0.55710127-0.37140117 0.92850243-10.77062805 25.81236709-5.94241576 52.18183546 12.62763291 70.75188413 12.07053164 12.07053164 27.2979708 18.19864751 43.63961345 18.19864752 8.91362319 0 18.19864751-1.85700487 27.29797173-5.75671472 0.37140116-0.18570011 0.55710127-0.18570011 0.92850243-0.37140117l531.10338076-254.59536222c5.38531355-2.59980718 9.28502434-7.61371958 10.21352677-13.55613534s-0.92850244-12.07053164-5.19961345-16.34164265L342.35145729 285.37527734z m-7.79942063 44.93951703l187.92888898 187.928889c-72.60888899-2.97120741-152.4600964-31.01198054-237.8823184-83.37951704l49.95342942-104.54937196zM126.01039401 871.81740295c-6.8709182 2.78550731-19.49855111 5.5710146-29.89777705-4.64251123-10.39922688-10.39922688-7.42801947-23.02685979-4.64251216-29.89777799l50.13913047-104.54937196c35.84019281 30.0834781 72.05178772 56.82434762 108.26338169 79.6655073l-123.86222295 59.42415388z m363.9729474-174.55845377c-22.28405841-5.5710146-45.3109182-13.18473418-68.70917914-22.84115967-9.47072445-3.89970985-20.42705354 0.55710127-24.32676339 10.02782666s0.55710127 20.24135249 10.02782666 24.32676338c10.95632815 4.45681206 21.91265725 8.72792307 32.8689854 12.44193186l-150.23169132 72.05178772c-43.63961344-25.9980672-87.83632815-58.12425121-131.47594159-95.26434762l51.99613534-108.44908273c15.97024148 12.62763291 31.94048297 24.5124635 47.91072445 35.65449268 3.15690846 2.22840602 6.8709182 3.34260858 10.58492793 3.34260952 5.75671473 0 11.69913047-2.78550731 15.22743915-7.98512168 5.94241576-8.3565219 3.89970985-20.05565238-4.45681111-25.81236709-17.64154623-12.25623175-35.28309154-25.62666698-52.73893765-39.73990266l41.78260856-86.90782666c95.26434762 57.9385511 184.95768158 87.09352677 267.03729501 87.09352677 7.98512073 0 15.78454138-0.37140116 23.58396107-0.74280232l74.0944927 74.09449364-143.17507207 68.7091782z" p-id="1580"></path><path d="M113.75416227 921.77083331c-19.49855111 0-36.9543963-7.24231842-50.88193187-21.16985492-21.54125608-21.72695619-27.11227068-52.3675365-14.85603893-81.89391333 0.18570011-0.37140116 0.37140116-0.92850244 0.55710127-1.4856037l254.59536222-531.1033817c4.08541088-8.54222201 12.07053164-14.48463778 21.16985587-15.97024148 9.28502434-1.48560371 18.57004867 1.48560371 25.06956477 7.98512074l335.74647322 335.56077312c6.49951704 6.49951704 9.47072445 15.97024148 7.98512074 25.06956477-1.48560371 9.09932328-7.42801947 17.08444402-15.78454043 21.16985492L146.43744755 914.714215c-0.55710127 0.18570011-0.92850244 0.37140116-1.29990358 0.55710128-10.21352677 4.27111101-20.79845377 6.49951704-31.3833817 6.49951703zM66.77194026 826.6921858c-9.09932328 21.91265725-5.19961344 43.63961344 10.58492791 59.42415482 10.02782572 10.02782572 22.46975852 15.22743916 36.3972941 15.22743915 7.79942063 0 15.59884032-1.67130475 23.02685979-4.82821228 0.37140116-0.18570011 0.74280232-0.37140116 1.11420348-0.37140115l530.73198053-254.40966118c2.41410614-1.11420254 4.08541089-3.34260858 4.45681113-5.94241577 0.37140116-2.78550731-0.37140116-5.5710146-2.41410616-7.61371957L335.10913887 292.61759669c-1.85700487-1.85700487-4.64251217-2.78550731-7.61372052-2.41410613-2.59980719 0.37140115-4.82821228 2.04270498-5.94241483 4.64251215L67.14334141 825.76368337c0 0.18570011-0.18570011 0.55710127-0.37140115 0.92850243z m70.93758423 69.45198053s-0.18570011 0-0.18570013 0.18570105l0.18570013-0.18570105z m-70.56618308-70.19478191c0 0.18570011 0 0 0 0z m46.42512074 58.68135249c-9.28502433 0-17.82724635-3.52830962-24.69816454-10.21352678-10.77062805-10.77062805-13.18473418-25.62666698-6.87091726-41.03980718l0.18570011-0.55710127 55.89584518-116.43420254 10.02782666 8.54222201c35.84019281 30.0834781 71.86608667 56.63864751 107.14917821 78.92270497l15.59884032 9.84212561-141.13236708 67.5949766c-5.38531355 2.22840602-10.95632815 3.34260858-16.1559416 3.34260858z m-12.81333301-43.26821322c-4.45681206 11.51343036 0.74280232 16.89874392 2.59980624 18.57004868 4.64251217 4.64251217 10.95632815 5.5710146 18.57004866 2.59980718l107.14917823-51.43903407c-27.66937195-18.38434762-55.89584519-39.18280232-83.93661831-62.20966211l-44.38241482 92.47884032z m188.30028921-36.58299513l-4.64251218-2.78550731c-43.63961344-25.9980672-88.39343036-58.49565238-132.77584517-96.19285006l-5.94241577-5.01391239L206.41870363 573.58242729l10.02782572 7.98512074c15.78454138 12.4419328 31.75478286 24.32676339 47.35362318 35.28309247 1.48560371 0.92850244 2.97120741 1.48560371 4.82821322 1.4856037 2.59980718 0 5.38531355-1.2999036 6.68521714-3.52830962l0.18570012-0.18570011c1.2999036-1.85700488 1.85700487-4.08541089 1.29990358-6.31381692-0.37140116-2.22840602-1.48560371-4.08541089-3.34260856-5.19961344-17.08444402-11.88483059-35.09739142-25.44096591-53.29603894-40.29700487l-6.31381599-5.01391239 50.13913048-104.36367185 9.65642456 5.94241577c93.40734275 56.82434762 181.42937195 85.60792306 261.65198147 85.60792212 7.79942063 0 15.59884032-0.37140116 23.02685978-0.74280138l4.45681112-0.18570106 87.46492792 87.46492794-159.51671563 76.50859884-3.52830868-0.92850244c-23.02685979-5.75671473-46.61082085-13.55613535-70.19478286-23.39826095-4.27111101-1.85700487-9.28502434 0.18570011-10.95632816 4.45681207-1.85700487 4.27111101 0.18570011 9.09932328 4.45681112 10.95632814 12.99903407 5.19961344 22.84115968 9.09932329 32.12618401 12.25623175l23.76966211 7.98512075-177.34396199 85.42222201z m-118.29120741-109.56328436c39.92560371 33.61178772 80.03690846 62.58106233 119.40541089 86.35072445l123.49082085-59.23845375c-3.34260857-1.2999036-6.8709182-2.78550731-10.58492793-4.27111195l-0.18570011 0c-14.67033788-6.31381599-21.54125608-22.84115968-15.41314022-37.51149757 5.94241576-14.67033788 22.84115968-21.72695619 37.69719862-15.59884032 21.35555597 8.91362318 42.89681206 15.97024148 63.69526583 21.54125609l126.83342942-60.90975852-60.72405746-60.72405747c-6.31381599 0.37140116-12.81333302 0.55710127-19.49855112 0.55710127-81.33681206 0-169.54454137-27.85507208-262.76618401-82.82241577l-33.42608667 69.45198053c15.78454138 12.4419328 31.01198053 23.95536222 45.86801947 34.168889 6.31381599 4.27111101 10.39922688 10.95632815 11.88483059 18.57004867 1.29990361 7.61371958-0.37140116 15.22743916-4.82821228 21.54125609-5.38531355 7.79942063-14.11323662 12.4419328-23.58396106 12.44193186-5.94241576 0-11.69913047-1.85700488-16.52734369-5.19961344-12.62763292-8.91362318-25.62666698-18.19864751-38.25429895-28.22647324l-43.08251217 89.87903407z m377.34338169-165.64483151l-26.18376827-1.11420256c-74.28019281-2.97120741-155.80270498-31.5690818-242.71053162-84.86512074l-7.7994197-4.82821227 60.1669562-125.90492794 216.52676339 216.71246351z m-250.32425122-98.6069562c70.38048296 41.96830962 136.67555598 67.03787439 197.7710146 74.83729502l-158.031111-158.03111101-39.7399036 83.19381599z" p-id="1581"></path><path d="M460.6426647 281.84696865c3.52830962 3.15690846 9.28502434 8.3565219 11.32772931 11.51342944-2.59980719 2.97120741-7.79942063 7.61371958-11.51342943 10.95632908-11.88483059 10.77062805-18.9414489 25.62666698-19.68425121 41.78260858-0.74280232 16.15594159 4.82821228 31.5690818 15.59884032 43.45391332s25.62666698 18.9414489 41.78260858 19.68425122l2.97120835 0c15.04173905 0 29.34067672-5.5710146 40.48270498-15.78454137 9.84212561-8.91362319 20.79845377-18.9414489 31.01198053-33.98318795 13.74183546-20.2413525 20.42705354-41.96830962 20.42705354-66.295073 0-53.48173905-27.2979708-78.36560371-51.62473419-100.27826095-3.52830962-3.15690846-9.28502434-8.3565219-11.32773025-11.51342943 2.59980719-2.78550731 7.79942063-7.61371958 11.51343036-10.95632909 24.5124635-22.28405841 26.36946837-60.53835734 4.0854109-85.05082085-10.77062805-11.88483059-25.62666698-18.9414489-41.78260857-19.68425122-15.97024148-0.74280232-31.5690818 4.82821228-43.45391334 15.59884032-9.84212561 8.91362319-20.79845377 18.9414489-31.01198052 33.98318889-13.74183546 20.2413525-20.42705354 41.96830962-20.42705355 66.29507206 0 53.48173905 27.48367185 78.36560371 51.62473419 100.27826095z m39.36850243 90.06473419c-6.12811587-0.37140116-11.88483059-2.97120741-15.97024149-7.61371959-4.08541089-4.64251217-6.31381599-10.39922688-5.94241481-16.71304379 0.37140116-6.12811587 2.97120741-11.88483059 7.61371958-15.97024149 4.64251217-4.27111101 9.09932328-8.3565219 12.81333301-12.25623175l17.64154625 17.82724635c7.98512074 7.98512074 7.98512073 20.79845377 0.37140116 28.96927555-4.64251217 3.89970985-10.39922689 5.94241576-16.5273437 5.75671472z m56.08154624-78.92270498c0 10.39922689-1.67130475 19.86995133-5.19961344 28.96927461-2.41410614-3.89970985-5.19961344-7.42801947-8.3565219-10.7706271l-47.72502434-48.2821256c-2.97120741-2.97120741-5.94241576-5.75671473-8.91362318-8.54222296-21.91265725-20.05565237-39.36850243-35.65449269-39.36850243-72.79458911 0-10.39922689 1.67130475-19.86995133 5.19961345-28.96927555 2.41410614 3.89970985 5.19961344 7.42801947 8.35652189 10.77062804l47.72502435 48.28212561 0.1857001 0c2.97120741 2.97120741 5.94241576 5.75671473 8.91362318 8.54222202 21.91265725 19.86995133 39.18280233 35.65449269 39.18280232 72.79459004zM501.12537062 102.46030168l1.11420254 0c6.12811587 0.37140116 11.88483059 2.97120741 15.97024148 7.61371957 8.54222201 9.47072445 7.98512074 24.14106232-1.4856037 32.6832853-4.64251217 4.27111101-9.09932328 8.17082086-12.81333303 12.25623174L486.26933168 137.18629194c-7.98512074-7.98512074-7.98512073-20.79845377-0.37140117-28.96927463 4.27111101-3.71400973 9.65642549-5.75671473 15.22744011-5.75671563z" p-id="1582"></path><path d="M501.12537062 419.45102612l-3.52830962 0c-18.75574879-0.92850244-36.21159399-9.09932328-48.83922689-23.02685979-12.62763292-13.9275365-19.12714994-31.94048297-18.19864752-50.69623175 0.92850244-18.9414489 9.09932328-36.21159399 23.0268598-48.83922688l0.55710128-0.55710128c1.11420254-0.92850244 2.22840602-2.04270498 3.52830962-3.15690845-1.11420254-0.92850244-2.41410614-2.22840602-3.89970985-3.52830868l6.87091726-7.61372051-6.87091726 7.42801945c-24.5124635-22.28405841-54.96734275-49.76772932-54.96734369-107.70628041 0-26.55516942 7.24231843-49.95343036 22.09835829-72.05178679 11.1420292-16.34164265 23.02685979-27.11227068 32.68328435-35.84019374 13.9275365-12.62763292 31.94048297-19.12714994 50.69623175-18.19864752 18.75574879 0.92850244 36.21159399 9.09932328 48.83922782 23.02686073 12.62763292 13.9275365 19.12714994 31.94048297 18.19864657 50.69623175-0.92850244 18.75574879-9.09932328 36.21159399-22.84115875 48.83922688-1.2999036 1.11420254-2.78550731 2.41410614-4.08541089 3.71400973 1.11420254 0.92850244 2.41410614 2.22840602 3.89970985 3.52830869 24.5124635 22.09835735 54.96734275 49.5820292 54.96734369 107.89198054 0 26.55516942-7.24231843 49.95343036-22.09835829 72.05178771-11.1420292 16.34164265-23.02685979 27.11227068-32.68328436 35.84019375-12.99903407 11.69913047-29.71207694 18.19864751-47.35362316 18.19864657z m-2.78550731-20.42705261l2.78550731 1e-8c12.44193279 0 24.32676339-4.64251217 33.61178678-13.18473418 9.28502434-8.3565219 19.68425121-17.82724635 29.52637682-32.12618402 12.62763291-18.57004867 18.57004867-38.25429989 18.57004867-60.53835735 0-49.21062805-24.5124635-71.3089854-48.2821256-92.66454139-6.12811587-5.38531355-10.77062805-9.84212561-12.99903407-13.55613533l-4.27111101-6.68521714 5.38531449-5.75671472c3.52830962-3.71400973 10.21352677-9.84212561 12.0705307-11.51343036 9.84212561-8.91362319 15.59884032-21.16985492 16.15594253-34.54028921s-3.89970985-26.18376825-12.81333396-36.02589386c-8.91362319-9.84212561-21.35555597-15.78454138-34.72599027-16.34164265-13.37043522-0.55710127-26.18376825 3.89970985-36.21159396 12.99903407-9.28502434 8.3565219-19.68425121 17.82724635-29.34067578 32.12618307-12.62763291 18.57004867-18.75574879 38.25429989-18.7557488 60.53835737 0 48.83922687 24.5124635 71.12328529 48.28212562 92.66454135l-6.8709182 7.6137196 6.8709182-7.6137196c6.12811587 5.5710146 10.77062805 9.84212561 13.18473418 13.55613534l4.27111101 6.49951705-5.01391333 5.75671472c-2.78550731 3.34260858-7.79942063 7.79942063-11.8848306 11.3277293l-0.55710127 0.55710128c-9.84212561 8.91362319-15.78454138 21.35555597-16.34164263 34.7259912-0.55710127 13.37043522 3.89970985 26.18376825 12.99903313 36.21159398a51.06763291 51.06763291 0 0 0 34.35459004 15.97024147z m2.41410614-16.8987439l-1.48560369 0c-9.09932328-0.55710127-17.27014508-4.45681206-23.0268598-11.14202921-5.94241576-6.8709182-8.91362318-15.41314021-8.54222295-24.14106233 0.55710127-9.09932328 4.45681206-17.08444402 10.9563291-23.02686073l0.37140114-0.37140022c4.45681206-4.08541088 8.54222201-7.79942063 11.88483059-11.32773026l7.24231843-7.61371957 25.0695657 25.25526581c11.88483059 11.88483059 12.07053164 30.82628042 0.55710127 43.08251216l-0.92850243 0.92850244c-5.94241576 5.5710146-13.9275365 8.3565219-22.09835736 8.35652189z m-0.37140116-20.42705355c3.34260858 0.18570011 6.31381599-0.92850244 8.91362318-2.97120741 3.52830962-4.27111101 3.34260858-10.39922688-0.55710127-14.29893766l-10.58492793-10.584927c-1.67130475 1.67130475-3.52830962 3.34260858-5.38531356 5.01391333l-0.55710127 0.55710128c-2.41410614 2.22840602-3.89970985 5.38531355-4.08541089 8.91362317-0.18570011 3.34260858 0.92850244 6.49951704 3.34260856 9.28502434 2.41410614 2.41410614 5.5710146 3.89970985 8.91362318 4.08540995z m52.55323661-16.89874391l-10.77062802-17.45584519c-1.85700488-3.15690846-4.27111101-6.12811587-7.05661832-9.09932329l-47.72502434-48.28212561c-2.78550731-2.78550731-5.5710146-5.38531355-8.72792212-8.35652189l-0.55710128-0.55710127C455.6287523 240.43576124 436.1302012 222.6085149 436.1302012 181.3830076c0-11.69913047 1.85700488-22.46975852 5.94241576-32.68328529l7.42801947-19.12714995 10.77062711 17.45584519c1.85700488 3.15690846 4.27111101 6.12811587 7.05661924 9.09932422l44.56811587 45.12521714 0.18570012 1e-8 2.97120741 2.97120741c2.78550731 2.78550731 5.75671473 5.5710146 8.72792306 8.3565219 21.7269562 19.68425121 42.33970985 38.44 42.33970985 80.22260858 0 11.69913047-1.85700488 22.46975852-5.94241482 32.68328529l-7.24231937 19.31285005z m-95.8214489-169.91594159c-0.18570011 2.22840602-0.37140116 4.45681206-0.37140115 6.68521714 0 32.31188413 14.11323661 45.12521714 35.46879259 64.62376826l0.74280138 0.55710127c3.15690846 2.78550731 6.12811587 5.75671473 9.28502433 8.91362317l43.63961345 44.0110146c0.18570011-2.22840602 0.37140116-4.45681206 0.37140116-6.68521714 0-32.68328529-14.29893768-45.68231842-35.84019375-65.18086954-2.04270498-2.04270498-4.08541088-3.89970985-6.31381598-5.94241575l-0.18570012 0-46.79652191-46.98222201z m47.16792214-5.01391333l-25.25526489-25.44096593c-11.88483059-11.88483059-12.07053164-30.82628042-0.55710221-43.08251217l0.74280233-0.74280232c6.12811587-5.38531355 13.9275365-8.17082086 21.91265725-8.17082085l1.67130381 0c9.09932328 0.55710127 17.27014508 4.45681206 23.02685979 11.1420292 12.25623175 13.55613534 11.32772932 34.72599027-2.22840508 46.98222201l-2.5998072 2.41410614c-3.52830962 3.15690846-6.8709182 6.31381599-9.47072444 9.09932328l-7.24231936 7.79942064z m-11.32772932-54.22454138c-3.52830962 4.27111101-3.52830962 10.39922688 0.55710127 14.48463778l10.58492794 10.58492793c1.11420254-0.92850244 2.22840602-2.04270498 3.15690846-2.9712074l2.59980624-2.41410708c5.38531355-4.82821227 5.5710146-12.99903407 0.74280234-18.38434763-2.22840602-2.41410614-5.19961344-3.89970985-8.72792306-4.27111101l-0.74280139 0c-2.97120741 0-5.75671473 1.11420254-8.1708218 2.97120741zM725.82295485 229.85083331c10.77062805 10.77062805 25.06956477 16.34164264 39.36850244 16.34164265s28.59787439-5.38531355 39.36850242-16.34164265l26.18376826-26.18376825c21.7269562-21.7269562 21.72695619-57.01004867 0-78.73700487l-26.18376826-26.18376825c-21.7269562-21.7269562-57.01004867-21.72695619-78.73700486 0l-26.18376825 26.18376825c-10.39922688 10.39922688-16.34164265 24.5124635-16.34164264 39.36850244s5.75671473 28.96927555 16.34164264 39.36850243l26.18376825 26.18376825z m0-78.73700487l26.18376825-26.18376825c3.52830962-3.52830962 8.17082085-5.38531355 13.18473419-5.38531355s9.65642549 1.85700487 13.18473418 5.38531355l26.18376824 26.18376825c3.52830962 3.52830962 5.38531355 8.17082085 5.38531356 13.18473419s-1.85700487 9.65642549-5.38531356 13.18473416l-26.18376824 26.18376827c-3.52830962 3.52830962-8.17082085 5.38531355-13.18473418 5.38531449s-9.65642549-1.85700487-13.18473419-5.38531449L725.82295485 177.2975967c-3.52830962-3.52830962-5.38531355-8.17082085-5.38531449-13.18473419s1.85700487-9.65642549 5.38531449-12.99903407z" p-id="1583"></path><path d="M765.19145729 256.40600271c-17.64154623 0-34.16888899-6.8709182-46.61082086-19.31285098L692.39686818 210.90938442c-12.4419328-12.25623175-19.31285006-28.78357451-19.31285099-46.61082179 0-17.64154623 6.8709182-34.16888899 19.31285099-46.61082086l26.18376825-26.18376825c25.62666698-25.62666698 67.40927556-25.62666698 93.22164171 0l26.18376825 26.18376825c12.4419328 12.4419328 19.31285006 28.96927555 19.31285005 46.61082086s-6.8709182 34.16888899-19.31285005 46.61082179l-26.18376825 26.18376731c-12.25623175 12.4419328-28.78357451 19.31285006-46.61082085 19.31285098z m0-163.78782665c-11.69913047 0-23.21256084 4.45681206-32.12618402 13.37043524l-26.18376731 26.18376825c-8.54222201 8.54222201-13.37043523 20.05565238-13.37043523 32.12618308 0 12.25623175 4.64251217 23.58396106 13.37043523 32.12618401l26.18376731 26.18376826c8.54222201 8.54222201 20.24135249 13.37043522 32.12618402 13.37043428 12.25623175 0 23.58396106-4.64251217 32.12618307-13.37043428l26.18376825-26.18376826c8.54222201-8.54222201 13.37043523-20.05565238 13.37043523-32.12618401s-4.64251217-23.58396106-13.37043523-32.12618308l-26.18376825-26.18376824c-8.91362318-8.91362318-20.42705354-13.37043523-32.12618307-13.37043525z m0 126.64772932c-7.79942063 0-15.04173905-2.97120741-20.42705354-8.35652096l-26.18376732-26.36946931c-5.38531355-5.38531355-8.3565219-12.62763291-8.3565219-20.4270526s2.97120741-15.04173905 8.54222202-20.24135249l26.18376825-26.18376825c5.38531355-5.38531355 12.62763291-8.3565219 20.4270526-8.3565219s15.04173905 2.97120741 20.42705354 8.3565219l26.18376824 26.18376826c5.38531355 5.38531355 8.3565219 12.62763291 8.35652191 20.4270526s-2.97120741 15.04173905-8.35652191 20.42705354l-26.18376824 26.18376825c-5.5710146 5.38531355-12.81333302 8.3565219-20.61275365 8.35652096z m0-89.50763291c-2.41410614 0-4.45681206 0.74280232-5.94241576 2.41410708l-26.36946837 26.36946836c-1.85700487 1.67130475-2.22840602 3.89970985-2.22840603 5.5710146 0 2.41410614 0.74280232 4.45681206 2.41410614 5.94241484l26.18376826 26.36946929c1.48560371 1.48560371 3.52830962 2.41410614 5.94241576 2.41410614s4.45681206-0.74280232 5.94241576-2.41410614l26.18376731-26.18376825c1.67130475-1.67130475 2.41410614-3.52830962 2.41410708-5.94241576s-0.74280232-4.45681206-2.41410706-5.94241577l-26.18376733-26.18376731c-1.48560371-1.67130475-3.52830962-2.41410614-5.94241576-2.41410708z" p-id="1584"></path><path d="M966.11938034 364.48368337c-11.88483059-10.77062805-27.2979708-16.34164265-43.45391333-15.59884034-16.15594159 0.74280232-30.82628042 7.79942063-41.78260857 19.68425123-3.34260858 3.71400973-7.98512074 8.91362318-10.95632909 11.32772932-3.15690846-2.22840602-8.17082085-7.79942063-11.51342942-11.32772932-21.91265725-24.14106232-46.7965219-51.43903407-100.27826096-51.43903407-24.32676339 0-46.05371958 6.68521714-66.295073 20.42705354-15.04173905 10.21352677-25.06956477 21.35555597-33.98318794 31.01198053-0.18570011 0.18570011-0.37140115 0.55710127-0.74280233 0.74280138-10.39922688 11.88483059-15.78454138 26.92656964-15.04173904 42.71111194 0.74280232 16.15594159 7.79942063 30.82628042 19.68425121 41.78260859 24.5124635 22.28405841 62.76676339 20.61275365 85.2365219-4.0854109 3.34260858-3.71400973 7.98512074-8.91362318 10.9563291-11.32772931 3.15690846 2.22840602 8.17082085 7.79942063 11.51342942 11.32772931 21.91265725 24.14106232 46.79652191 51.62473418 100.27826095 51.62473418 24.32676339 0 46.05371958-6.68521714 66.29507207-20.4270526 15.04173905-10.21352677 25.06956477-21.35555597 33.98318889-31.01198147 22.46975852-24.88386466 20.61275365-63.13816454-3.89970986-85.42222201zM908.36652935 393.45295892c4.08541089-4.64251217 9.84212561-7.24231843 15.97024148-7.61371958 6.12811587-0.18570011 12.07053164 1.85700487 16.71304381 5.94241482 9.28502433 8.54222201 10.02782572 22.84115968 1.85700487 32.31188412-7.98512074 7.61371958-20.98415481 7.61371958-28.96927555-0.37140022l-17.82724636-17.64154623c4.08541089-3.52830962 8.17082085-7.98512073 12.25623175-12.62763291z m-188.85739048 31.19768158c-4.08541089 4.64251217-9.84212561 7.24231843-15.97024243 7.61371959-6.12811587 0.37140116-12.07053164-1.85700487-16.71304286-5.94241577s-7.24231843-9.84212561-7.61371958-15.97024148c-0.37140116-5.94241576 1.67130475-11.69913047 5.75671471-16.34164265 7.98512074-7.61371958 20.79845376-7.61371958 28.96927556 0.37140117l17.82724635 17.64154622c-3.89970985 3.52830962-7.98512074 7.98512074-12.25623175 12.62763292z m77.43710127 0c-2.78550731-2.97120741-5.5710146-6.12811587-8.54222295-9.09932422l-48.28212561-47.72502434c-3.34260858-3.34260858-7.05661831-6.12811587-10.77062804-8.35652096 9.09932328-3.52830962 18.57004867-5.19961344 28.96927555-5.19961439 37.1400964 0 52.92463778 17.45584519 72.79459005 39.36850244 2.78550731 2.97120741 5.5710146 6.12811587 8.542222 8.91362318l0.18570013 0.18570104 48.2821256 47.72502434c3.34260858 3.34260858 7.05661831 6.12811587 10.77062803 8.35652097-9.09932328 3.52830962-18.57004867 5.19961344-28.96927555 5.19961436-37.32579746 0-53.11033788-17.45584519-72.98028921-39.36850242z" p-id="1585"></path><path d="M869.74082924 511.55846622c-57.93855109 0-85.60792305-30.45487926-107.70628042-54.96734276l-1.67130381-1.85700486c-0.55710127-0.74280232-1.2999036-1.48560371-2.22840604-2.22840603-1.11420254 1.2999036-2.22840602 2.41410614-3.15690846 3.52830868l-0.37140116 0.55710221c-26.18376825 28.78357451-70.93758424 31.01198053-99.72115873 4.82821229-13.92753649-12.99903407-22.09835735-30.26917915-23.02685978-48.83922689-0.92850244-18.19864751 5.38531355-36.02589386 17.64154529-49.95343036l1.29990358-1.48560371 0.18570012-0.1857001 0.55710221-0.5571022c9.09932329-9.84212561 19.31285006-20.79845377 34.54028922-31.38338077 21.91265725-14.85603894 45.49661831-22.09835735 72.05178771-22.0983583 58.12425121 0 85.60792306 30.26917915 107.70628043 54.78164264l1.67130382 1.85700486c0.55710127 0.74280232 1.2999036 1.48560371 2.22840602 2.22840604 1.11420254-1.2999036 2.22840602-2.41410614 3.15690846-3.52830962l0.37140117-0.55710128c12.99903407-14.11323661 30.26917915-22.28405841 48.83922688-23.02685978 18.75574879-0.92850244 36.76869525 5.5710146 50.69623175 18.19864751 28.59787438 25.9980672 30.82628042 70.93758424 4.64251217 99.90685979l-1.11420349 1.29990359c-9.09932329 9.84212561-19.31285006 20.79845377-34.54028922 31.38338169-22.09835735 14.85603894-45.49661831 22.09835735-72.05178772 22.09835736z m-112.16309154-85.97932329l6.31381599 4.45681112c3.15690846 2.22840602 6.8709182 6.12811587 11.32772932 10.77062805l1.85700486 1.85700487c21.54125608 23.76966212 43.82531355 48.28212561 92.66454137 48.2821256 22.28405839 0 41.96830962-6.12811587 60.53835736-18.75574879 13.37043522-9.09932328 22.84115968-19.31285006 31.01198053-28.22647322l1.11420349-1.2999036c18.57004867-20.61275365 17.08444402-52.3675365-3.34260858-70.93758423-9.84212561-8.91362319-22.84115968-13.55613535-36.21159491-12.99903408-13.18473418 0.55710127-25.62666698 6.49951704-34.72599026 16.34164265l-0.37140117 0.37140116c-3.71400973 4.08541089-8.17082086 9.09932328-11.69913048 11.88483059l-5.94241481 4.82821227-6.31381693-4.45681112c-3.15690846-2.22840602-6.8709182-6.12811587-11.32772932-10.95632909l-1.85700486-1.85700486c-21.54125608-23.58396106-43.63961344-48.09642549-92.66454043-48.09642456-22.28405839 0-41.96830962 6.12811587-60.5383583 18.75574878-13.37043522 9.09932328-22.84115968 19.31285006-31.01198053 28.22647323l-0.92850243 0.92850243c-0.37140116 0.37140116-0.74280232 0.92850244-1.2999036 1.48560371-8.3565219 9.84212561-12.62763292 22.09835735-11.88483059 34.91169132 0.55710127 13.18473418 6.49951704 25.62666698 16.34164265 34.72599027 20.42705354 18.57004867 52.18183546 17.08444402 70.75188413-3.52830963l0.37140116-0.37140117c3.71400973-4.08541089 8.17082086-9.09932328 11.69913047-11.88483058l6.12811587-4.45681112z m112.34879165 48.65352583c-41.78260858 0-60.53835735-20.79845376-80.40830868-42.711111-0.92850244-0.92850244-1.85700487-2.04270498-2.7855073-2.97120741-1.85700487-2.04270498-3.71400974-3.89970985-5.5710146-5.7567147l-48.28212561-47.72502435c-2.59980719-2.59980719-5.5710146-4.82821228-8.91362318-6.8709182l-17.82724635-10.77062804 19.49855111-7.61371957c10.21352677-3.89970985 20.9841548-5.94241576 32.68328435-5.94241578 41.59690846 0 60.35265725 20.79845376 80.22260858 42.71111101 0.74280232 0.74280232 1.2999036 1.48560371 2.04270591 2.22840603 2.04270498 2.22840602 4.08541089 4.27111101 5.94241484 6.12811588l0.37140114 0.37140115 48.28212561 47.72502434c2.59980719 2.59980719 5.5710146 4.82821228 8.91362318 6.87091726l17.82724635 10.77062804-19.49855017 7.61372052c-10.02782572 4.08541089-20.79845377 5.94241576-32.49758518 5.94241482z m-118.29120741-109.37758424l44.01101461 43.45391334c2.22840602 2.22840602 4.27111101 4.45681206 6.12811587 6.49951704 0.92850244 0.92850244 1.85700487 1.85700487 2.59980719 2.78550635l0.1857001 0.18570105c19.68425121 21.7269562 32.49758424 36.02589386 65.36656964 36.02589387 2.22840602 0 4.64251217-0.18570011 6.68521809-0.37140117l-44.19671565-43.63961344c-2.41410614-2.41410614-4.64251217-4.82821228-6.87091726-7.05661831-0.74280232-0.74280232-1.2999036-1.48560371-2.04270592-2.22840602l-0.18570011-0.18570011c-19.68425121-21.7269562-32.49758424-36.02589386-65.18086953-36.02589387-2.04270498 0.18570011-4.45681206 0.37140116-6.49951703 0.55710127z m-49.39632815 77.62280233c-7.98512073 0-15.78454138-2.97120741-22.09835736-8.54222295-6.49951704-5.75671473-10.58492793-13.9275365-11.1420292-23.02685979-0.55710127-8.54222201 2.41410614-17.08444402 8.3565219-23.76966118l0.55710128-0.55710221c12.07053164-11.51343036 31.01198053-11.32772932 43.08251215 0.37140117l25.62666605 25.25526582-7.98512074 7.24231841c-3.52830962 3.15690846-7.24231842 7.24231842-11.32772931 11.69913047l-0.18570012 0.18570106c-5.75671473 6.49951704-13.9275365 10.39922688-23.02685979 10.95632815-0.55710127 0.18570011-1.2999036 0.18570011-1.85700486 0.18570105z m-9.84212561-41.41120835c-2.04270498 2.59980719-3.15690846 5.5710146-2.97120835 8.54222201 0.18570011 3.52830962 1.67130475 6.68521714 4.0854109 8.91362318 2.78550731 2.41410614 6.12811587 3.52830962 9.28502434 3.34260951 3.52830962-0.18570011 6.68521714-1.67130475 8.91362316-4.0854109l0.55710128-0.55710127c1.67130475-1.85700487 3.34260858-3.52830962 5.01391333-5.38531448l-10.58492794-10.39922689c-3.89970985-3.71400974-10.21352677-3.89970985-14.29893672-0.37140116zM928.60788278 439.87807966c-7.98512073 0-15.97024148-2.97120741-21.91265724-8.91362317l-25.62666698-25.44096593 8.3565219-7.24231937c3.71400974-3.15690846 7.61371958-7.42801947 11.32772931-11.69913047 5.75671473-6.49951704 13.9275365-10.58492793 23.02685979-11.14202826l0.37140117 0c8.91362318-0.18570011 17.27014508 2.78550731 23.76966211 8.54222202l0.18570011 0.1857001c13.37043523 12.25623175 14.48463778 32.68328529 2.59980719 46.42512074l-0.74280232 0.74280234c-5.94241576 5.75671473-13.55613535 8.54222201-21.35555504 8.542222z m-18.0129474-33.79748784l10.39922689 10.39922689c3.89970985 3.89970985 10.21352676 4.08541089 14.29893766 0.55710127 4.27111101-5.38531355 3.71400974-12.99903407-1.29990359-17.64154529-2.59980719-2.22840602-5.94241576-3.52830962-9.47072445-3.34260858-3.52830962 0.18570011-6.68521714 1.67130475-8.72792307 4.08540995-1.48560371 2.04270498-3.34260858 4.08541089-5.19961344 5.94241576z" p-id="1586"></path><path d="M339.38024988 636.34919066c-10.21352677 0-18.57004867 8.3565219-18.57004868 18.57004868s8.3565219 18.57004867 18.57004868 18.57004774 18.57004867-8.3565219 18.57004773-18.57004775-8.3565219-18.57004867-18.57004773-18.57004867z" p-id="1587"></path><path d="M339.38024988 683.70281384c-15.78454138 0-28.78357451-12.99903407-28.78357545-28.7835745s12.99903407-28.78357451 28.78357545-28.78357544 28.78357451 12.99903407 28.78357448 28.78357544-12.99903407 28.78357451-28.78357448 28.7835745z m0-37.1400964c-4.64251217 0-8.3565219 3.71400973-8.35652191 8.3565219s3.71400973 8.3565219 8.35652191 8.3565219 8.3565219-3.71400973 8.35652095-8.3565219-3.71400973-8.3565219-8.35652095-8.3565219z" p-id="1588"></path></svg>