<?xml version="1.0" standalone="no"?><!DOCTYPE svg PUBLIC "-//W3C//DTD SVG 1.1//EN" "http://www.w3.org/Graphics/SVG/1.1/DTD/svg11.dtd"><svg t="1621358376660" class="icon" viewBox="0 0 1044 1024" version="1.1" xmlns="http://www.w3.org/2000/svg" p-id="1587" xmlns:xlink="http://www.w3.org/1999/xlink" width="203.90625" height="200"><defs><style type="text/css"></style></defs><path d="M522.8544 1015.74656C239.86176 1015.74656 10.24 790.81472 10.24 513.024 10.24 235.19232 239.88224 10.24 522.8544 10.24c282.95168 0 512.59392 224.95232 512.59392 502.76352s-229.64224 502.74304-512.6144 502.74304z m0-61.44c249.30304 0 451.15392-197.71392 451.15392-441.30304 0-243.58912-201.85088-441.32352-451.1744-441.32352C273.53088 71.68 71.68 269.4144 71.68 513.00352s201.85088 441.30304 451.1744 441.30304z" p-id="1588"></path><path d="M522.8544 392.66304c-70.06208 0-127.09888-55.86944-127.09888-125.1328 0-69.24288 57.0368-125.1328 127.0784-125.1328 70.06208 0 127.09888 55.88992 127.09888 125.1328 0 69.26336-57.0368 125.1328-127.09888 125.1328z m0-61.44c36.39296 0 65.6384-28.672 65.6384-63.6928s-29.24544-63.6928-65.65888-63.6928c-36.39296 0-65.6384 28.672-65.6384 63.6928s29.24544 63.6928 65.6384 63.6928zM522.8544 883.58912c-70.06208 0-127.09888-55.88992-127.09888-125.1328 0-69.24288 57.0368-125.1328 127.0784-125.1328 70.06208 0 127.09888 55.88992 127.09888 125.1328 0 69.24288-57.0368 125.1328-127.09888 125.1328z m0-61.44c36.39296 0 65.6384-28.672 65.6384-63.6928s-29.24544-63.6928-65.65888-63.6928c-36.39296 0-65.6384 28.672-65.6384 63.6928s29.24544 63.6928 65.6384 63.6928zM754.15552 638.11584c-70.06208 0-127.09888-55.86944-127.09888-125.1328 0-69.2224 57.0368-125.1328 127.09888-125.1328 70.0416 0 127.0784 55.9104 127.0784 125.1328 0 69.26336-57.0368 125.1328-127.0784 125.1328z m0-61.44c36.39296 0 65.6384-28.65152 65.6384-63.6928 0-35.0208-29.24544-63.6928-65.6384-63.6928-36.41344 0-65.65888 28.672-65.65888 63.6928 0 35.04128 29.24544 63.6928 65.65888 63.6928zM542.1056 1015.74656h451.7888a30.72 30.72 0 1 0 0-61.44H542.1056a30.72 30.72 0 0 0 0 61.44zM291.5328 638.11584c-70.0416 0-127.09888-55.86944-127.09888-125.1328 0-69.2224 57.05728-125.1328 127.09888-125.1328 70.0416 0 127.09888 55.9104 127.09888 125.1328 0 69.26336-57.0368 125.1328-127.09888 125.1328z m0-61.44c36.41344 0 65.65888-28.65152 65.65888-63.6928 0-35.0208-29.24544-63.6928-65.65888-63.6928-36.39296 0-65.65888 28.672-65.65888 63.6928 0 35.04128 29.26592 63.6928 65.65888 63.6928z" p-id="1589"></path></svg>