<?xml version="1.0" standalone="no"?><!DOCTYPE svg PUBLIC "-//W3C//DTD SVG 1.1//EN" "http://www.w3.org/Graphics/SVG/1.1/DTD/svg11.dtd"><svg t="1621358406328" class="icon" viewBox="0 0 1024 1024" version="1.1" xmlns="http://www.w3.org/2000/svg" p-id="2740" xmlns:xlink="http://www.w3.org/1999/xlink" width="200" height="200"><defs><style type="text/css"></style></defs><path d="M903.975385 700.258462l-301.883077-374.272c0.393846-5.710769 0.866462-11.342769 0.866461-17.132308 0-135.148308-109.922462-245.070769-245.070769-245.070769S112.836923 173.686154 112.836923 308.834462c0 135.148308 109.922462 245.070769 245.070769 245.070769 5.789538 0 11.460923-0.472615 17.132308-0.846769l374.232615 301.883076a27.313231 27.313231 0 0 0 36.411077-1.949538l21.346462-21.346462a72.270769 72.270769 0 0 1-4.155077 25.462154c-7.030154 18.963692-23.571692 34.067692-49.152 44.8-30.129231 12.681846-76.996923-9.294769-131.249231-34.697846-99.899077-46.848-236.701538-111.005538-383.113846 3.741539a27.293538 27.293538 0 0 0 33.654154 42.92923c119.965538-94.070154 229.592615-42.653538 326.301538 2.717539 47.438769 22.232615 92.868923 43.52 134.754462 43.52 14.020923 0 27.667692-2.363077 40.822154-7.936 40.034462-16.836923 66.658462-42.456615 79.123692-76.209231 13.036308-35.209846 6.577231-70.242462 0.039385-91.372308l47.990153-47.990153c9.846154-9.846154 10.692923-25.540923 1.949539-36.371693zM167.345231 308.814769c0-105.058462 85.464615-190.523077 190.542769-190.523077 105.058462 0 190.523077 85.464615 190.523077 190.523077 0 105.058462-85.464615 190.542769-190.523077 190.542769-105.058462 0-190.542769-85.484308-190.542769-190.542769z m597.070769 488.270769L443.510154 538.210462a246.075077 246.075077 0 0 0 143.753846-143.753847L846.119385 715.421538l-38.656 38.636308c-3.524923 2.264615-6.4 5.139692-8.52677 8.526769l-34.520615 34.540308z m-164.233846-281.206153a27.273846 27.273846 0 0 0-38.577231 38.557538l59.076923 59.116308a27.273846 27.273846 0 0 0 38.577231-38.577231l-59.076923-59.096615z" p-id="2741"></path></svg>