<?xml version="1.0" standalone="no"?><!DOCTYPE svg PUBLIC "-//W3C//DTD SVG 1.1//EN" "http://www.w3.org/Graphics/SVG/1.1/DTD/svg11.dtd"><svg t="1621631072194" class="icon" viewBox="0 0 1039 1024" version="1.1" xmlns="http://www.w3.org/2000/svg" p-id="2652" xmlns:xlink="http://www.w3.org/1999/xlink" width="202.9296875" height="200"><defs><style type="text/css"></style></defs><path d="M764.96507111 729.00542813H274.08562311c-10.24835213 0-18.65243523 2.62537212-24.30096247 7.59405056A22.1890934 22.1890934 0 0 0 242.176145 753.47273635c0 13.2932049 10.97159553 26.75998881 31.93840831 26.75998883h490.72756664c20.75707245 0 30.20985788-13.43785373 30.20985787-25.92102682 0-12.59889171-9.30813659-25.31350277-30.09413853-25.31350277z" p-id="2653"></path><path d="M892.76933143 279.26403823c0-17.48801424-14.26958318-25.45815159-27.52662608-25.4581516-13.37999406 0-26.87570746 7.83995362-26.87570817 25.35689736L837.40508399 786.21394464a38.62117277 38.62117277 0 0 1-38.50545342 38.50545414h-50.12073575v-0.22420541H234.42298055A38.62117277 38.62117277 0 0 1 195.88859693 785.98973922s-3.07378223-75.36914702 2.89297139-83.89618127c12.83032967-18.33420882 41.72388521-20.81493212 59.19020254-23.06421746 2.78448532-0.3616217 507.36938704-0.54243255 507.36938705-0.54243181 0.91851862 0 1.80810703 0 2.69046362-0.08678915h0.81726437c14.11770255 0 28.4162152-9.24304508 28.41621521-26.90463765V363.97025133h0.65815117v-126.56751458c0-52.91245361-43.29332244-96.19131097-96.19131097-96.19131097h-464.32196768c-52.91245361 0-96.19131097 43.29332244-96.19131095 96.19131097v548.94139161c0 52.21090788 42.15783097 95.05581947 94.12283648 96.19131096l560.51327792 0.2531349c52.91245361 0 96.19131097-43.29332244 96.19131167-96.19131097V699.20058655a29.37812841 29.37812841 0 0 0 0.72324268-6.47302416zM234.42298055 199.25167174h470.34658098a38.63563788 38.63563788 0 0 1 38.33187585 34.99049361 31.31641915 31.31641915 0 0 0-0.21697288 3.68853884V624.09180697s-488.91222705 0-490.93730768-0.23866979c-9.22857999-1.01254031-47.73403414 3.50772799-56.41294905 18.69582979L195.88859693 237.76435844a38.62117277 38.62117277 0 0 1 38.53438362-38.5126867z" p-id="2654"></path></svg>