<?xml version="1.0" standalone="no"?><!DOCTYPE svg PUBLIC "-//W3C//DTD SVG 1.1//EN" "http://www.w3.org/Graphics/SVG/1.1/DTD/svg11.dtd"><svg t="1621631069447" class="icon" viewBox="0 0 1024 1024" version="1.1" xmlns="http://www.w3.org/2000/svg" p-id="2525" xmlns:xlink="http://www.w3.org/1999/xlink" width="200" height="200"><defs><style type="text/css"></style></defs><path d="M250.77759058 541.85777101l42.64501025 257.94188388h412.63795212l42.64501025-257.94188388z m-6.04281555-37.12015009H754.74837876l11.91297793-72.5137825H232.64914475l12.08563027 72.5137825zM799.29255902 240.23496694l-46.78865496-27.106343-103.59111786 178.86733045h62.67262691l87.7071459-151.76098745z m12.08563029-35.56628395L787.5522326 116.09827702l-88.39775363 23.82595752z m-136.22231938-36.25689165l-129.14359386 223.58416305h60.60080374L720.21800559 194.82752659z m-174.55103339 224.4474223l164.01926926-284.35761833 150.20712133-39.70992864 40.05523168 149.34386123h1.38121545L754.74837876 393.54982137h11.56767488a38.67401707 38.67401707 0 0 1 38.15606169 44.88948412l-60.60080375 368.26642418A55.59389978 55.59389978 0 0 1 720.21800559 912.54132143H279.61045123a55.59389978 55.59389978 0 0 1-23.99860904-105.83559176L194.66573459 438.43930549a38.67401707 38.67401707 0 0 1 38.15606168-44.88948412H269.59664331L180.68093429 239.5443592A91.85079143 91.85079143 0 1 1 340.38390732 147.69356775l141.57452801 245.85625362zM280.47371047 837.61041271a17.26518659 17.26518659 0 0 0 0 35.56628393h438.53573284a17.26518659 17.26518659 0 0 0 0-35.56628393zM305.85353497 166.85792518a53.34942591 53.34942591 0 1 0-91.67813993 53.34942508l99.10217011 171.78860413h123.10077833zM276.33006577 217.444921A18.30109735 18.30109735 0 0 1 301.3645864 224.17834345L357.6490939 320.690735a18.47374969 18.47374969 0 0 1-31.94059543 18.30109735L269.59664331 242.65209315a18.30109735 18.30109735 0 0 1 6.73342246-25.20717215z m0 0" p-id="2526"></path></svg>