<?xml version="1.0" standalone="no"?><!DOCTYPE svg PUBLIC "-//W3C//DTD SVG 1.1//EN" "http://www.w3.org/Graphics/SVG/1.1/DTD/svg11.dtd"><svg t="1621631065694" class="icon" viewBox="0 0 1024 1024" version="1.1" xmlns="http://www.w3.org/2000/svg" p-id="2397" xmlns:xlink="http://www.w3.org/1999/xlink" width="200" height="200"><defs><style type="text/css"></style></defs><path d="M110.66697917 312.0003125H190.66666667v39.999375h-79.9996875z m0 379.9996875H190.66666667v40.0003125h-79.9996875zM130.66666667 612.0003125v60h40.0003125v-300H130.66666667v159.999375z m464.9203125-117.200625l169.719375-169.68 28.280625 28.280625L623.88541667 523.1z" p-id="2398"></path><path d="M920.66697917 254l-56.000625-55.9996875c-7.9996875-8.000625-19.9996875-8.000625-27.999375 0L780.66635417 254V152c0-12-7.9996875-19.9996875-19.9996875-19.9996875H150.66635417C138.66635417 132.0003125 130.66666667 140 130.66666667 152v139.9996875h40.0003125v-120h60V872h-60V752H130.66666667v139.9996875c0 12 7.9996875 20.000625 19.9996875 20.000625h608.000625c12 0 19.9996875-8.000625 19.9996875-20.000625v-438l85.9996875-85.9996875c4.0003125-4.0003125 6-7.9996875 6-13.9996875s-1.9996875-10.0003125-6-14.000625l56.000625-55.9996875c7.9996875-10.0003125 7.9996875-22.0003125 0-30zM738.66635417 872h-468V171.9996875h468V266L326.66697917 678.0003125c-2.000625 1.9996875-2.000625 3.999375-4.0003125 6v1.9996875L280.66666667 813.9996875c-1.9996875 8.000625 0 16.0003125 4.0003125 20.000625 3.999375 3.999375 7.9996875 6 13.9996875 6 1.9996875 0 4.0003125 0 6-2.000625l127.9996875-42h2.000625c1.9996875 0 3.999375-1.9996875 6-3.999375L738.66635417 494V872zM350.66697917 729.9996875l39.999375 40.0003125-57.999375 19.9996875 18-60z m75.999375 20.000625L368.66697917 692l396-396L820.66666667 351.9996875 426.66635417 750.0003125z m410.000625-438L808.66666667 284 850.66666667 242l28.0003125 28.0003125-42 42z" p-id="2399"></path></svg>