<?xml version="1.0" standalone="no"?><!DOCTYPE svg PUBLIC "-//W3C//DTD SVG 1.1//EN" "http://www.w3.org/Graphics/SVG/1.1/DTD/svg11.dtd"><svg t="1621358945702" class="icon" viewBox="0 0 1024 1024" version="1.1" xmlns="http://www.w3.org/2000/svg" p-id="1324" xmlns:xlink="http://www.w3.org/1999/xlink" width="200" height="200"><defs><style type="text/css"></style></defs><path d="M814.14285752 104.85714307H237.71428613c-57.85714248 0-107.14285722 47.14285693-107.14285722 104.99999941v604.28571504c0 57.85714248 47.14285693 105.00000029 104.99999941 104.99999941H811.99999971c57.85714248 0 105.00000029-47.14285693 105.00000029-104.99999941V209.85714248C919.14285693 152 872 104.85714307 814.14285752 104.85714307zM237.71428613 175.57142891h576.42857139c19.28571416 0 34.28571445 15.00000029 34.28571357 34.28571357v60.00000029H201.28571386V209.85714248c0-19.28571416 17.14285722-34.28571445 36.42857227-34.28571357z m576.42857139 675H237.71428613c-19.28571416 0-34.28571445-15.00000029-34.28571445-34.28571446V340.57142862h647.14285723v473.5714289c-2.14285693 21.42857109-17.14285722 36.42857138-36.42857139 36.42857139z" p-id="1325"></path><path d="M749.85714248 449.85714278c0-19.28571416-15.00000029-34.28571445-34.28571357-34.28571445h-34.28571446c-19.28571416 0-34.28571445 15.00000029-34.28571445 34.28571444 0 15.00000029 8.57142862 25.71428584 21.42857109 32.14285752-2.14285693 64.28571416-68.57142891 115.71428584-147.85714247 115.71428584-81.42857138 0-147.85714248-53.57142862-147.85714248-120.00000058 8.57142862-6.42857168 15.00000029-17.14285722 14.99999941-27.85714277 0-19.28571416-15.00000029-34.28571445-34.28571446-34.28571445H319.14285752c-19.28571416 0-34.28571445 15.00000029-34.28571445 34.28571445 0 15.00000029 8.57142862 27.85714277 21.42857109 32.14285751 2.14285693 102.85714248 98.57142862 186.42857168 218.57142832 186.4285708s218.57142832-85.71428614 218.5714292-190.71428554c2.14285693-6.42857168 6.42857168-17.14285722 6.4285708-27.85714277z" p-id="1326"></path></svg>