<?xml version="1.0" standalone="no"?><!DOCTYPE svg PUBLIC "-//W3C//DTD SVG 1.1//EN" "http://www.w3.org/Graphics/SVG/1.1/DTD/svg11.dtd"><svg t="1621358812016" class="icon" viewBox="0 0 1137 1024" version="1.1" xmlns="http://www.w3.org/2000/svg" p-id="1324" xmlns:xlink="http://www.w3.org/1999/xlink" width="222.0703125" height="200"><defs><style type="text/css"></style></defs><path d="M1059.6837957 379.80044141c0-50.26997197-41.27644336-91.16748458-92.01265312-91.16748458l-26.52334805 1e-8c14.99341464-23.33889053 23.01216416-50.43828516 23.01216416-78.84818702 0.0027-39.49879922-15.54875947-76.62950683-43.78854726-104.55336914-28.19388339-27.87885791-65.66121826-43.23140156-105.50024561-43.23140156-38.60412715 0-74.04989766 17.00327724-105.3535333 50.53639307-20.90329277 22.39381406-39.94343526 52.20062842-56.70189317 88.74268857-15.04111817-4.65337705-31.39814356-7.07907305-48.08189443-7.07907305-16.72695527 0-33.08577979 2.42119599-48.09089531 7.06827218-16.76025791-36.53935928-35.79769951-66.34077363-56.69919229-88.7318877-31.30273565-33.53311582-66.74760615-50.53639307-105.3499333-50.53639307-68.31643359 0-127.69694385 46.00272656-144.40139649 111.87006153-1.04768526 4.13043487-0.35822901 8.51018906 1.90815469 12.11858173 2.26638369 3.60839268 5.91167901 6.13219658 10.08711739 6.98276601 11.33101758 2.30778721 23.22548086 5.43734033 35.35486347 9.30135323 4.1169331 1.31230635 8.59479609 0.85506943 12.36250108-1.26190195 3.76770498-2.11697138 6.48772558-5.70286231 7.50930821-9.90170245 8.67580312-35.64738721 40.53748359-60.5443043 77.48097626-60.54430429 48.76144981 0 85.5474293 67.385758 104.67037793 112.39300371-2.69481797 5.52644737-4.42025771 11.48673076-5.14931748 17.80884229-0.08640703 0.36272901-0.16111318 0.72995888-0.22231757 1.09988877-0.21781758 0.90547295-0.57154658 2.5751083-0.57154659 4.64527617 0 7.07547305 1.56162656 13.98713291 4.61107354 20.59546816-22.61163164-0.5634457-62.14103349-8.79731279-125.09843291-43.2124998C311.65570567 210.26270937 254.07354131 193.20902773 201.98902256 193.20902773c-85.06769063 0-127.2136043 45.67059932-131.84897959 51.01253174-0.10980878 0.12511055-0.21781758 0.25292021-0.32402636 0.38163076-5.87117549 7.1528792-8.57589434 16.15180869-7.616417 25.34065225 0.96127823 9.19694531 5.47154297 17.44971328 12.7090292 23.24438262 6.15019834 4.91799815 13.88002412 7.62631787 21.76646309 7.62631787 10.43634551 0 20.2165374-4.60027266 26.84287441-12.62172217 1.29790547-1.49232128 24.05444854-26.71506387 77.26585869-26.71506387 40.25846074 0 86.97314443 14.38586543 138.8362456 42.75166289 62.69097832 34.34678174 116.94467286 51.76139238 161.25256143 51.76139239 5.47154297 0 11.07809737-0.35462901 17.19859307-1.09988877 2.52920479 1.70833799 5.55345 2.67051622 8.72350664 2.67051621l43.2620042 0 0 119.94101543L219.13181123 477.50245596l0-97.76231895c0-12.22929052 10.16632354-22.17869648 22.66293604-22.17869649l126.81937265 0c0.0045 0 0.00990088-0.0009 0.01530088 0 8.60649697 0 15.58386211-6.97736513 15.58386211-15.5838621 0-6.47152383-3.94411904-12.02137383-9.55967432-14.37686456-14.57038037-6.75234668-26.77446914-12.86744239-38.39531044-19.24085829-12.57941865-6.85945547-25.22184258-12.93494766-38.64913067-18.57210469-1.90995469-0.80196503-3.9603208-1.21509844-6.03228867-1.21509844L241.79474727 288.57265244c-50.73800977 0-92.01625313 40.8975126-92.01625313 91.16748457l0 151.10783965c0 8.60649697 6.97736513 15.58386211 15.58386211 15.58386211l41.75348203 0 0 324.39707578c0 50.27177198 41.27914336 91.17108457 92.01715313 91.17108457l611.31961669 0c50.73890977 0 92.01715312-40.8984126 92.01715313-91.17108457L1002.46976123 546.61815371l41.93619697 0c4.13853487 0 8.10695654-1.64623359 11.03039385-4.5750709 2.92343643-2.9288373 4.56156914-6.90175898 4.55346914-11.04029385L1059.6837957 379.80044141zM932.99673447 546.48944404l1e-8 324.39977666c0 12.23019053-10.1384209 22.17869648-22.60173077 22.17869649L639.40915391 893.06791631 639.40915391 546.48944404 932.99673447 546.48944404zM990.39708388 379.80044141l0 97.76231894L639.47215918 477.56276036l0-119.94011544 328.26108955 0C980.22986035 357.6226458 990.39708388 367.57205175 990.39708388 379.80044141zM635.2976208 266.49566387c-7.48140557 1.82084766-17.86014668 3.28706631-30.56287588 3.28706631-4.43375948 0-8.88461982-0.19891582-13.29497666-0.59314835-1.68943711-1.84694941-3.53998653-3.46258037-5.54714912-4.83969199 5.5030456-0.71105801 11.81615713-1.16109404 18.84212578-1.16109404C617.43567412 263.18969668 627.81621435 264.66401622 635.2976208 266.49566387zM814.56964209 130.56575381c44.07837011 0 79.9399749 35.37376523 79.93997491 78.85358701 0 43.47802177-35.86160479 78.84998701-79.93997491 78.84998701L710.80203623 288.26932783c3.31496895-6.93776162 5.03590781-14.25715489 5.03590781-21.7556622 0-8.08535479-2.01526348-16.13740693-5.88467636-23.68181865C729.09241807 197.82550214 765.8558958 130.56575381 814.56964209 130.56575381zM570.11794122 546.48944404l0 346.57937315L299.13299141 893.06881631c-12.46240987 0-22.60173076-9.94940596-22.60173076-22.17869649L276.53126065 546.48944404 570.11794122 546.48944404z" p-id="1325"></path></svg>